# xmcd
#
# Track frame offsets:
#	150
#	12169
#	28978
#	45433
#	59094
#	74857
#	88624
#	110255
#	133353
#	153810
#	166799
#	180341
#	194553
#	209337
#	226201
#	244215
#	258246
#	270749
#	288003
#	305224
#	317655
#	332913
#	347379
#
# Disc length: 4790 seconds
#
# Revision: 1
# Processed by: cddbd v1.5.1PL2 Copyright (c) Steve Scherf et al.
# Submitted via: audiograbber 1.83.01
#
DISCID=5212b417
DTITLE=Verschiedene - Mix
DYEAR=1900
DGENRE=Country
TTITLE0=Bobby Bare - 500 Miles Away From Home
TTITLE1=Randy Travis and George Jones - A Few Ol Country Boys
TTITLE2=Lorrie Morgan - A Picture Of Me Without You
TTITLE3=Waylonig Jennings and Willie Nelson - Amanda
TTITLE4=Daryl Singletary - Amen Kind Of Love
TTITLE5=John Denver - Annie's Song
TTITLE6=John Denver - Back Home Again
TTITLE7=John Horton - Battle Of New Orleans
TTITLE8=Garth Brooks - Beaches Of Cheyene
TTITLE9=Lacy J. Dalton and Bobby Bare - Beer Drinking Christians
TTITLE10=Charlie Pride - Behind Closed Doors
TTITLE11=Merle Haggard - Branded Man
TTITLE12=Joe Nichols - Brokenheartsville
TTITLE13=Brad Paisley - Celebrity
TTITLE14=Brooks and Dunn - Chattahoochee
TTITLE15=Dolly Parton - Coat Of Many Colors
TTITLE16=Red Sovine - Colorada Kool Aid
TTITLE17=K . T .  Oslin - Come Next Monday
TTITLE18=C . W .  McCall - Convoy
TTITLE19=Chris Ledoux and Toby Keith - Copenhagen
TTITLE20=Rednex - Cotton Eyed Joe
TTITLE21=Travis Tritt - Country Club
TTITLE22=Kitty Wells Rockytop - Country Oldies
EXTD=
EXTT0=
EXTT1=
EXTT2=
EXTT3=
EXTT4=
EXTT5=
EXTT6=
EXTT7=
EXTT8=
EXTT9=
EXTT10=
EXTT11=
EXTT12=
EXTT13=
EXTT14=
EXTT15=
EXTT16=
EXTT17=
EXTT18=
EXTT19=
EXTT20=
EXTT21=
EXTT22=
PLAYORDER=
